<svg xmlns="http://www.w3.org/2000/svg" width="25.683" height="89.637" viewBox="0 0 25.683 89.637">
    <defs>
        <style>
            .cls-1,.cls-2,.cls-3{fill:#f1a640}.cls-2{opacity:.809}.cls-3{opacity:.802}
        </style>
    </defs>
    <g id="Grupo_1397" data-name="Grupo 1397">
        <path id="ic_airport_shuttle_24px" d="M19.678 5H3.335A2.365 2.365 0 0 0 1 7.395v10.776h2.335a3.551 3.551 0 0 0 3.5 3.592 3.551 3.551 0 0 0 3.5-3.592h6.425a3.5 3.5 0 1 0 7 0h2.919v-5.987zM3.335 12.184V7.395h7v4.789zm3.5 7.783a1.8 1.8 0 1 1 1.751-1.8 1.772 1.772 0 0 1-1.749 1.8zm9.181-7.783h-5.677V7.395h5.679zm4.244 7.783a1.8 1.8 0 1 1 1.751-1.8 1.772 1.772 0 0 1-1.749 1.8zm-3.206-7.783V7.395h1.455l4.67 4.789z" class="cls-1" transform="translate(-1 32.909)"/>
        <g id="Grupo_1327" data-name="Grupo 1327" transform="rotate(-90 16.613 7.197)">
            <circle id="Elipse_286" cx="3.501" cy="3.501" r="3.501" class="cls-1" data-name="Elipse 286" transform="translate(16.807)"/>
            <circle id="Elipse_287" cx="2.101" cy="2.101" r="2.101" class="cls-2" data-name="Elipse 287" transform="translate(7.003 1.401)"/>
            <circle id="Elipse_288" cx=".7" cy=".7" r=".7" class="cls-2" data-name="Elipse 288" transform="translate(0 2.801)"/>
        </g>
        <g id="Grupo_1328" data-name="Grupo 1328" transform="rotate(-90 49.526 40.111)">
            <circle id="Elipse_289" cx="3.501" cy="3.501" r="3.501" class="cls-1" data-name="Elipse 289" transform="rotate(180 3.502 3.502)"/>
            <circle id="Elipse_290" cx="2.101" cy="2.101" r="2.101" class="cls-3" data-name="Elipse 290" transform="rotate(180 8.403 2.801)"/>
            <circle id="Elipse_291" cx=".7" cy=".7" r=".7" class="cls-3" data-name="Elipse 291" transform="rotate(180 11.905 2.101)"/>
        </g>
    </g>
</svg>
